<?xml version="1.0" encoding="utf-8"?>
<!-- Generator: Adobe Illustrator 16.0.0, SVG Export Plug-In . SVG Version: 6.00 Build 0)  -->
<!DOCTYPE svg PUBLIC "-//W3C//DTD SVG 1.1//EN" "http://www.w3.org/Graphics/SVG/1.1/DTD/svg11.dtd">
<svg version="1.1" id="Layer_1" xmlns="http://www.w3.org/2000/svg" xmlns:xlink="http://www.w3.org/1999/xlink" x="0px" y="0px"
	 width="75.356px" height="110.734px" viewBox="0 0 75.356 110.734" enable-background="new 0 0 75.356 110.734"
	 xml:space="preserve">
<g>
	<defs>
		<rect id="SVGID_5_" x="-1252.888" y="198.889" width="1920" height="1056"/>
	</defs>
	<clipPath id="SVGID_2_">
		<use xlink:href="#SVGID_5_"  overflow="visible"/>
	</clipPath>
	<g transform="matrix(1 0 0 1 -1.220703e-004 -4.768372e-007)" clip-path="url(#SVGID_2_)">
		
			<image overflow="visible" width="4592" height="3448" xlink:href="E:\Work\_Personal Work\pedrorodrigues.net\Images\photo-1471107340929-a87cd0f5b5f3.jpg"  transform="matrix(0.5245 0 0 0.5245 -1270.1533 -6.8857)">
		</image>
	</g>
</g>
<g>
	<circle fill="#0B0E14" cx="37.679" cy="37.5" r="37.5"/>
	<g>
		<g>
			<path fill="#662D8F" d="M46.475,55.547c-1.047,0-2.039-0.629-2.451-1.66l-8.796-22.02c-0.542-1.354,0.119-2.889,1.472-3.43
				c1.353-0.54,2.89,0.12,3.429,1.472l8.797,22.019c0.54,1.354-0.118,2.89-1.472,3.43C47.132,55.486,46.8,55.547,46.475,55.547z"/>
		</g>
		<g>
			
				<linearGradient id="SVGID_4_" gradientUnits="userSpaceOnUse" x1="37.6777" y1="12854.3379" x2="37.6777" y2="12843.2197" gradientTransform="matrix(1 0 0 -1 0 12882.9766)">
				<stop  offset="0" style="stop-color:#662D8F"/>
				<stop  offset="0.7581" style="stop-color:#00A59B"/>
			</linearGradient>
			<path fill="url(#SVGID_4_)" d="M37.678,28.25c-1.457,0-2.639,1.186-2.639,2.649v8.35c0,1.464,1.369-1.543,2.826-1.543
				s2.447-0.938,2.451-1.095v-5.712C40.316,29.436,39.135,28.25,37.678,28.25z"/>
		</g>
		<g>
			<path fill="#00A59B" d="M28.882,55.546c-1.457,0-2.639-1.181-2.639-2.639V30.889c0-6.305,5.13-11.436,11.435-11.436
				c6.306,0,11.435,5.131,11.435,11.436s-5.129,11.434-11.435,11.434c-1.457,0-2.639-1.182-2.639-2.639
				c0-1.456,1.182-2.639,2.639-2.639c3.396,0,6.157-2.762,6.157-6.156c0-3.396-2.762-6.158-6.157-6.158s-6.156,2.762-6.156,6.158
				v22.018C31.521,54.365,30.339,55.546,28.882,55.546z"/>
		</g>
	</g>
	<g>
		<path fill="#00A59B" d="M0.142,94.378h3.6c2.318,0,4.041,0.288,5.168,0.861c1.129,0.575,2.056,1.511,2.787,2.804
			c0.73,1.295,1.094,2.807,1.094,4.535c0,1.229-0.203,2.359-0.611,3.39s-0.973,1.886-1.691,2.565s-1.496,1.15-2.336,1.411
			c-0.838,0.26-2.291,0.39-4.357,0.39H0.142V94.378z M3.157,97.307v10.066h1.412c1.387,0,2.395-0.16,3.02-0.478
			s1.137-0.854,1.535-1.607c0.396-0.754,0.598-1.68,0.598-2.781c0-1.693-0.475-3.007-1.422-3.942
			c-0.854-0.838-2.225-1.258-4.111-1.258H3.157z"/>
		<path fill="#00A59B" d="M15.396,94.378h8.711v2.972h-5.695v2.887h5.695v2.917h-5.695v4.198h5.695v2.982h-8.711V94.378z"/>
		<path fill="#00A59B" d="M35.356,96.547l-2.25,1.984c-0.789-1.1-1.594-1.649-2.412-1.649c-0.398,0-0.726,0.108-0.979,0.321
			c-0.252,0.213-0.379,0.454-0.379,0.721s0.09,0.521,0.271,0.759c0.244,0.318,0.988,1.002,2.227,2.051
			c1.158,0.969,1.861,1.58,2.107,1.832c0.617,0.624,1.053,1.219,1.31,1.785c0.259,0.568,0.386,1.188,0.386,1.861
			c0,1.309-0.452,2.389-1.357,3.242c-0.904,0.854-2.084,1.279-3.539,1.279c-1.137,0-2.127-0.277-2.971-0.834
			c-0.844-0.557-1.566-1.432-2.166-2.625l2.553-1.542c0.768,1.41,1.652,2.115,2.65,2.115c0.521,0,0.961-0.151,1.316-0.455
			c0.354-0.303,0.531-0.654,0.531-1.053c0-0.361-0.133-0.722-0.403-1.084c-0.267-0.361-0.858-0.915-1.771-1.66
			c-1.738-1.417-2.862-2.512-3.367-3.281c-0.508-0.77-0.762-1.539-0.762-2.305c0-1.107,0.422-2.057,1.266-2.849
			s1.885-1.188,3.123-1.188c0.797,0,1.555,0.186,2.275,0.554C33.735,94.898,34.517,95.57,35.356,96.547z"/>
		<path fill="#00A59B" d="M38.081,94.378h3.014v15.956h-3.014V94.378z"/>
		<path fill="#00A59B" d="M59.011,96.98l-2.139,2.115c-1.354-1.432-2.932-2.146-4.734-2.146c-1.57,0-2.886,0.52-3.945,1.562
			c-1.063,1.041-1.591,2.307-1.591,3.796c0,1.541,0.55,2.845,1.649,3.916c1.099,1.071,2.459,1.605,4.072,1.605
			c1.051,0,1.936-0.22,2.656-0.662c0.72-0.441,1.301-1.131,1.742-2.071h-4.621v-2.854h8.027l0.021,0.673
			c0,1.396-0.361,2.719-1.084,3.971c-0.723,1.25-1.66,2.206-2.811,2.863c-1.15,0.659-2.498,0.986-4.047,0.986
			c-1.654,0-3.133-0.359-4.43-1.078c-1.299-0.72-2.327-1.745-3.082-3.075c-0.756-1.331-1.133-2.767-1.133-4.307
			c0-2.111,0.697-3.948,2.094-5.511c1.656-1.859,3.811-2.788,6.465-2.788c1.389,0,2.688,0.257,3.895,0.771
			C57.035,95.18,58.034,95.924,59.011,96.98z"/>
		<path fill="#00A59B" d="M62.507,94.378h2.914l6.826,10.5v-10.5h3.036v15.956h-2.919l-6.82-10.469v10.469h-3.037V94.378z"/>
	</g>
	<g>
		<path fill="#FFFFFF" d="M0,82.093h2.571c1.869,0,2.344,1.125,2.344,2.044c0,0.92-0.475,2.044-2.344,2.044h-1.58v3.221H0V82.093z
			 M0.991,85.314h1.303c0.783,0,1.568-0.187,1.568-1.178S3.077,82.96,2.294,82.96H0.991V85.314z"/>
		<path fill="#FFFFFF" d="M6.222,87.296c0,0.857,0.795,1.426,1.652,1.426c0.566,0,0.98-0.29,1.342-0.733l0.7,0.537
			c-0.515,0.67-1.228,1.001-2.168,1.001c-1.546,0-2.519-1.115-2.519-2.571c0-1.464,1.064-2.57,2.531-2.57
			c1.723,0,2.385,1.322,2.385,2.581v0.331H6.222z M9.152,86.553c-0.02-0.814-0.474-1.425-1.413-1.425
			c-0.92,0-1.518,0.774-1.518,1.425H9.152z"/>
		<path fill="#FFFFFF" d="M16.097,89.402h-0.93v-0.702h-0.02c-0.361,0.527-1.043,0.826-1.703,0.826
			c-1.518,0-2.488-1.124-2.488-2.571c0-1.464,0.979-2.57,2.488-2.57c0.701,0,1.373,0.32,1.703,0.826h0.02v-3.613h0.93V89.402z
			 M15.167,86.955c0-0.99-0.619-1.703-1.609-1.703s-1.611,0.713-1.611,1.703c0,0.991,0.621,1.704,1.611,1.704
			S15.167,87.946,15.167,86.955z"/>
		<path fill="#FFFFFF" d="M17.442,84.507h0.93v0.755h0.021c0.238-0.517,0.857-0.878,1.465-0.878c0.146,0,0.289,0.021,0.414,0.062
			l-0.041,1.001c-0.156-0.04-0.311-0.072-0.455-0.072c-0.909,0-1.404,0.496-1.404,1.57v2.457h-0.93V84.507z"/>
		<path fill="#FFFFFF" d="M23.372,84.385c1.455,0,2.602,1.146,2.602,2.57c0,1.426-1.146,2.571-2.602,2.571
			c-1.457,0-2.602-1.146-2.602-2.571C20.771,85.531,21.915,84.385,23.372,84.385z M23.372,88.659c0.99,0,1.609-0.713,1.609-1.704
			c0-0.99-0.619-1.703-1.609-1.703c-0.992,0-1.613,0.713-1.613,1.703C21.759,87.946,22.38,88.659,23.372,88.659z"/>
		<path fill="#FFFFFF" d="M30.245,82.093h2.572c1.867,0,2.344,1.125,2.344,2.044c0,0.93-0.693,1.808-1.797,1.931l2.074,3.334h-1.239
			l-1.856-3.221h-1.105v3.221h-0.992V82.093z M31.237,85.314h1.301c0.785,0,1.57-0.187,1.57-1.178s-0.785-1.177-1.57-1.177h-1.301
			V85.314z"/>
		<path fill="#FFFFFF" d="M38.427,84.385c1.455,0,2.602,1.146,2.602,2.57c0,1.426-1.146,2.571-2.602,2.571
			c-1.458,0-2.602-1.146-2.602-2.571C35.825,85.531,36.969,84.385,38.427,84.385z M38.427,88.659c0.989,0,1.611-0.713,1.611-1.704
			c0-0.99-0.622-1.703-1.611-1.703c-0.993,0-1.611,0.713-1.611,1.703C36.815,87.946,37.434,88.659,38.427,88.659z"/>
		<path fill="#FFFFFF" d="M47.003,89.402h-0.928v-0.702h-0.021c-0.361,0.527-1.043,0.826-1.704,0.826
			c-1.518,0-2.485-1.124-2.485-2.571c0-1.464,0.979-2.57,2.485-2.57c0.702,0,1.374,0.32,1.704,0.826h0.021v-3.613h0.928V89.402z
			 M46.075,86.955c0-0.99-0.621-1.703-1.611-1.703s-1.611,0.713-1.611,1.703c0,0.991,0.621,1.704,1.611,1.704
			S46.075,87.946,46.075,86.955z"/>
		<path fill="#FFFFFF" d="M48.35,84.507h0.931v0.755h0.02c0.238-0.517,0.857-0.878,1.466-0.878c0.146,0,0.29,0.021,0.413,0.062
			l-0.041,1.001c-0.154-0.04-0.311-0.072-0.453-0.072c-0.91,0-1.404,0.496-1.404,1.57v2.457H48.35V84.507z"/>
		<path fill="#FFFFFF" d="M52.511,82.072c0.371,0,0.682,0.31,0.682,0.681c0,0.373-0.311,0.683-0.682,0.683
			c-0.373,0-0.682-0.31-0.682-0.683C51.829,82.382,52.138,82.072,52.511,82.072z M52.046,84.507h0.93v4.895h-0.93V84.507z"/>
		<path fill="#FFFFFF" d="M59.206,89.361c0,1.476-1.073,2.518-2.674,2.518c-0.931,0-1.703-0.236-2.395-0.877l0.631-0.784
			c0.483,0.517,1.031,0.794,1.742,0.794c1.385,0,1.768-0.865,1.768-1.692v-0.722h-0.031c-0.352,0.588-1.023,0.866-1.693,0.866
			c-1.436,0-2.498-1.083-2.488-2.509c0-1.445,0.97-2.57,2.488-2.57c0.66,0,1.342,0.301,1.703,0.826h0.021v-0.704h0.928V89.361z
			 M55.056,86.955c0,0.991,0.621,1.643,1.609,1.643c0.992,0,1.613-0.651,1.613-1.643c0-0.99-0.621-1.703-1.613-1.703
			C55.677,85.252,55.056,85.965,55.056,86.955z"/>
		<path fill="#FFFFFF" d="M64.882,89.402h-0.931v-0.754h-0.021c-0.236,0.516-0.855,0.878-1.609,0.878
			c-0.949,0-1.777-0.567-1.777-1.868v-3.151h0.93V87.4c0,0.918,0.526,1.259,1.115,1.259c0.775,0,1.362-0.495,1.362-1.631v-2.521
			h0.931V89.402z"/>
		<path fill="#FFFFFF" d="M66.944,87.296c0,0.857,0.795,1.426,1.652,1.426c0.566,0,0.98-0.29,1.342-0.733l0.701,0.537
			c-0.516,0.67-1.229,1.001-2.168,1.001c-1.547,0-2.521-1.115-2.521-2.571c0-1.464,1.065-2.57,2.532-2.57
			c1.725,0,2.384,1.322,2.384,2.581v0.331H66.944z M69.876,86.553c-0.02-0.814-0.475-1.425-1.414-1.425
			c-0.918,0-1.518,0.774-1.518,1.425H69.876z"/>
		<path fill="#FFFFFF" d="M74.5,85.738c-0.217-0.271-0.538-0.486-1.001-0.486c-0.434,0-0.817,0.195-0.817,0.546
			c0,0.589,0.839,0.672,1.251,0.764c0.805,0.197,1.424,0.507,1.424,1.426c0,1.104-1.012,1.538-1.982,1.538
			c-0.805,0-1.405-0.207-1.889-0.867l0.703-0.579c0.297,0.301,0.65,0.579,1.186,0.579c0.476,0,0.992-0.196,0.992-0.62
			c0-0.557-0.773-0.661-1.178-0.754c-0.795-0.195-1.496-0.453-1.496-1.393c0-1.022,0.939-1.508,1.856-1.508
			c0.65,0,1.323,0.227,1.673,0.805L74.5,85.738z"/>
	</g>
</g>
</svg>
