<?xml version="1.0" encoding="utf-8"?>
<!-- Generator: Adobe Illustrator 16.0.0, SVG Export Plug-In . SVG Version: 6.00 Build 0)  -->
<!DOCTYPE svg PUBLIC "-//W3C//DTD SVG 1.1//EN" "http://www.w3.org/Graphics/SVG/1.1/DTD/svg11.dtd">
<svg version="1.1" xmlns="http://www.w3.org/2000/svg" xmlns:xlink="http://www.w3.org/1999/xlink" x="0px" y="0px"
	 width="887.404px" height="411.024px" viewBox="0 0 887.404 411.024" enable-background="new 0 0 887.404 411.024"
	 xml:space="preserve">
<g id="Layer_5">
</g>
<g id="Layer_2">
</g>
<g id="Layer_3">
</g>
<g id="Layer_6">
</g>
<g id="Layer_7">
</g>
<g id="Layer_8">
</g>
<g id="Layer_9">
</g>
<g id="Layer_10">
</g>
<g id="Layer_11">
	<path fill="#FFFFFF" d="M330.472,360.047l0.308-0.902c26.654,9.145,51.431,13.093,74.349,13.093
		c109.099,0.021,176.283-89.574,203.049-134.414c8.924-14.94,13.332-24.857,13.348-24.894C707.48,29.44,789.706,8.912,835.059,0
		l0.187,0.934c-45.199,8.939-126.909,29.091-212.851,212.394c-0.029,0.021-71.02,159.816-217.265,159.867
		C382.102,373.195,357.22,369.223,330.472,360.047"/>
	<path fill="#FFFFFF" d="M378.959,410.073c12.397-1.272,24.692-3.582,36.655-7.074c36.008-10.521,67.612-32.399,92.472-60.277
		c26.395-29.593,43.978-65.425,60.604-101.158h0.003l0.864,0.402c-16.636,35.746-34.25,71.668-60.758,101.391
		c-24.962,27.991-56.711,49.979-92.919,60.559c-12.022,3.512-24.375,5.833-36.823,7.109L378.959,410.073z"/>
	<g>
		<path fill="#FFFFFF" d="M631.243,107.46l-0.827-0.726l0.363-0.413c0.26-0.297,26.568-29.913,71.085-49.722
			c26.15-11.637,53.38-17.668,80.932-17.929c34.438-0.329,69.465,8.417,104.118,25.982l0.49,0.249l-0.497,0.981l-0.491-0.249
			c-78.089-39.582-143.197-26.223-184.063-8.048c-44.311,19.707-70.487,49.166-70.747,49.461L631.243,107.46z"/>
	</g>
	<path fill="#FFFFFF" d="M275.711,183.094c-0.184-0.126-0.471-0.32-0.848-0.563c-0.762-0.497-1.881-1.211-3.353-2.147
		c-2.945-1.879-7.307-4.626-13.109-8.264c-6.855-4.384-11.001-10.231-10.982-17.035c-0.041-3.047,1.072-6.069,3.457-7.944
		c2.362-1.866,5.376-2.514,8.807-2.525c5.106,0.126,9.124,3.282,12.645,8.506l4.556-10.739c-6.299-2.921-11.898-4.299-16.755-4.293
		c-6.714,0.019-12.308,2.097-17.335,6.419c-4.922,4.313-7.179,9.225-7.22,15.633c0.031,9.379,2.865,16.279,8.607,21.653
		c-0.013,0.03,1.857,1.437,4.714,3.299c2.925,1.935,7.092,4.598,12.425,7.95c6.861,4.071,11.094,9.729,11.068,16.436
		c0.013,4.458-1.385,8.667-4.082,12.194c-2.768,3.746-7.051,5.852-11.726,5.789c-6.93-0.123-12.676-4.693-17.903-12.601
		l-4.44,14.808c6.718,2.874,13.983,4.317,21.899,4.322c8.094-0.039,14.474-2.834,19.957-8.718c5.471-5.963,8.121-12.78,8.146-21.078
		c-0.038-9.136-2.804-15.821-8.416-21.028C275.791,183.15,275.754,183.124,275.711,183.094 M653.167,138.975h-21.069v-3.165
		c0-10.203,0-15.522,0.004-15.861c-0.157-3.79-1.316-6.396-3.561-8.563c-2.298-2.147-5.001-3.21-8.796-3.236
		c-2.953-0.006-6.742,0.798-11.253,2.52v4.425c2.949-0.408,4.58-0.615,5.501-0.634c0.046-0.005,0.091-0.005,0.14-0.005
		c0.931,0,2.267,0.49,3.007,1.495c0.78,1.03,0.878,2.024,0.893,2.779v82.947c-0.015,11.481,2.056,19.728,5.633,24.798
		c2.895,4.047,6.654,6.382,11.949,7.182c1.279-3.059,2.811-5.94,4.74-8.502c-2.195-1.078-4.055-2.828-5.25-5.096
		c-2.155-3.914-2.99-9.04-3.007-15.556v-57.889h21.033l-0.956-3.693l0.196-0.781L653.167,138.975z M404.908,231.774
		c1.329,0.104,2.317,0.42,3.67,0.958l31.991-93.745c-2.196,0.391-3.574,0.645-4.099,0.743c-0.304,0.092-0.569,0.129-0.904,0.136
		c-0.309-0.009-0.747-0.018-1.368-0.313c-0.222-0.067-0.58-0.166-1.063-0.3c-0.506-0.136-1.148-0.307-1.916-0.509l-24.467,74.689
		l-25.965-74.782c-2.566,1.303-4.823,2.056-7.114,2.099c-2.272-0.043-4.516-0.783-7.061-2.065l-24.609,74.987l-26.031-74.883
		c-2.699,0.693-5.016,1.068-7.066,1.077c-2.12-0.022-4.996-0.484-8.921-1.36l34.946,94.006c2.945-0.468,4.336-0.695,5.258-0.738
		c1.328,0.11,2.31,0.42,3.648,0.956l26.777-78.571l28.988,78.377C402.569,232.052,403.963,231.817,404.908,231.774 M474.004,157.6
		c4.667-8.943,12.052-14.175,20.976-14.093c4.403-0.069,8.401,2.272,10.908,6.175c1.959,3.196,2.911,6.941,2.906,10.965
		c0.108,5.575-3.516,10.216-8.96,12.533c-4.729,2.146-9.525,4.173-14.399,6.095c-4.651,2.343-8.393,5.24-11.32,8.699l-4.661,5.502
		l-0.901-7.15c-0.176-1.346-0.247-2.805-0.253-4.387C468.3,173.068,470.181,164.912,474.004,157.6 M495.644,234.21
		c9.994,0,20.046-3.905,30.372-12.134l0.362-10.81c-10.147,8.935-19.776,13.711-29.182,13.754
		c-9.716,0.112-17.698-4.815-22.344-13.718c-1.326-2.649-2.105-5.148-2.116-7.631c0.263-6.596,5.922-10.787,14.555-14.666
		c14.09-6.072,22.049-9.569,23.344-10.225l0.021-0.007c7.891-4.785,11.054-9.786,11.092-15.687
		c-0.043-8.145-2.699-14.108-8.155-18.852c-5.301-4.346-11.929-6.572-20.387-6.589c-12.095,0.062-21.45,4.93-29.165,15.35
		c-7.137,9.677-10.678,20.665-10.693,33.375c0.02,12.809,3.873,23.728,11.675,33.22C473.431,229.468,483.338,234.167,495.644,234.21
		 M554.061,157.6c4.672-8.943,12.052-14.175,20.976-14.093c4.401-0.069,8.401,2.272,10.913,6.175
		c1.956,3.196,2.912,6.941,2.899,10.965h0.007c0.103,5.575-3.516,10.216-8.962,12.533c-4.722,2.138-9.51,4.166-14.372,6.084
		c-4.664,2.343-8.416,5.241-11.352,8.71l-4.657,5.51l-0.904-7.158c-0.172-1.346-0.248-2.805-0.248-4.387
		C548.355,173.068,550.243,164.912,554.061,157.6 M575.702,234.21c9.991,0,20.051-3.905,30.371-12.128l0.36-10.81
		c-10.147,8.933-19.778,13.705-29.177,13.748c-9.72,0.112-17.698-4.815-22.35-13.718c-1.318-2.649-2.099-5.148-2.112-7.631
		c0.268-6.596,5.918-10.787,14.557-14.666c14.091-6.072,22.05-9.569,23.338-10.225l0.025-0.007
		c7.889-4.785,11.052-9.786,11.092-15.687c-0.04-8.145-2.703-14.108-8.161-18.852c-5.299-4.346-11.921-6.572-20.378-6.589
		c-12.093,0.062-21.455,4.93-29.172,15.35c-7.137,9.677-10.673,20.665-10.684,33.375c0.019,12.809,3.866,23.728,11.666,33.22
		C553.49,229.468,563.396,234.167,575.702,234.21"/>
	<path fill="#FFFFFF" d="M370.133,268.15c0-2.176-0.878-4.047-2.367-5.269c-1.145-0.955-2.29-1.413-4.848-1.794l-2.939-0.458
		c-1.527-0.229-3.092-0.878-4.047-1.68c-0.954-0.802-1.412-1.985-1.412-3.55c0-3.437,2.367-5.612,6.299-5.612
		c3.244,0,4.924,1.031,6.604,2.521l1.336-1.337c-2.329-2.023-4.467-2.939-7.826-2.939c-5.191,0-8.436,2.901-8.436,7.444
		c0,2.1,0.687,3.778,2.137,5.001c1.146,0.991,2.787,1.68,4.849,1.984l3.168,0.496c2.214,0.344,2.939,0.611,3.932,1.451
		c0.992,0.878,1.489,2.214,1.489,3.817c0,3.55-2.711,5.611-6.986,5.611c-3.283,0-5.268-0.764-7.711-3.207l-1.451,1.451
		c2.481,2.481,5.001,3.588,9.047,3.588C366.621,275.669,370.133,272.731,370.133,268.15 M348.832,275.441v-1.832h-14.429V248.26
		h-2.062v27.181H348.832z M326.005,275.441v-1.832h-14.43v-10.956h12.292v-1.833h-12.292v-10.727h14.43v-1.833h-16.491v27.181
		H326.005z M304.17,250.093v-1.833h-18.285v1.833h8.093v25.348h2.061v-25.348H304.17z M280.312,261.851
		c0,5.841-0.152,7.939-2.099,9.887c-1.374,1.374-3.207,2.1-5.154,2.1c-1.946,0-3.779-0.726-5.153-2.1
		c-1.947-1.947-2.1-4.046-2.1-9.887s0.153-7.94,2.1-9.888c1.374-1.374,3.207-2.099,5.153-2.099c1.947,0,3.78,0.725,5.154,2.099
		C280.16,253.911,280.312,256.01,280.312,261.851 M282.374,261.851c0-6.146-0.038-8.552-2.52-11.032
		c-1.794-1.794-4.237-2.787-6.795-2.787c-2.557,0-5,0.993-6.795,2.787c-2.481,2.48-2.519,4.886-2.519,11.032
		c0,6.146,0.038,8.551,2.519,11.031c1.795,1.795,4.238,2.787,6.795,2.787c2.558,0,5.001-0.992,6.795-2.787
		C282.336,270.402,282.374,267.997,282.374,261.851 M256.416,275.441V248.26h-2.061v12.56h-14.163v-12.56h-2.061v27.181h2.061
		v-12.788h14.163v12.788H256.416z"/>
	<path fill="#FFFFFF" d="M476.026,386.294c0,0,97.636-34.265,150.591-143.441c-4.235,0.034-8.824,0.063-13.638,0.082
		C565.082,343.385,476.026,386.294,476.026,386.294"/>
	<path fill="#FFFFFF" d="M588.959,242.987c-4.48-0.003-8.917-0.015-13.223-0.027c-47.847,100.788-137.205,143.807-137.205,143.807
		S536.724,354.185,588.959,242.987"/>
	<path fill="#FFFFFF" d="M658.446,132.457c4.934,0.101,7.847,0.228,7.847,0.377v10.374c26.246-43.06,71.214-84.647,137.484-100.107
		C800.272,43.709,711.539,55.742,658.446,132.457"/>
	<path fill="#FFFFFF" d="M646.726,105.699v15.044c28.313-31.525,73.527-66.84,121.573-78.05
		C765.312,43.211,698.896,54.801,646.726,105.699"/>
	<path fill="none" d="M0,205.194"/>
</g>
</svg>
