<?xml version="1.0" encoding="utf-8"?>
<!-- Generator: Adobe Illustrator 16.0.0, SVG Export Plug-In . SVG Version: 6.00 Build 0)  -->
<!DOCTYPE svg PUBLIC "-//W3C//DTD SVG 1.1//EN" "http://www.w3.org/Graphics/SVG/1.1/DTD/svg11.dtd">
<svg version="1.1" id="Layer_1" xmlns="http://www.w3.org/2000/svg" xmlns:xlink="http://www.w3.org/1999/xlink" x="0px" y="0px"
	 width="350.994px" height="311.871px" viewBox="0 0 350.994 311.871" enable-background="new 0 0 350.994 311.871"
	 xml:space="preserve">
<g>
	<g>
		<path fill="#434345" d="M176.088,158.453l12.082-1.967l24.426-3.975l111.078-18.08V35.398l-111.078-18.08l-24.426-3.975
			l-12.082-1.967l-0.398-0.064l0,0l0,0l-0.395,0.064l-12.082,1.967l-24.426,3.975l-111.08,18.08v99.033l111.08,18.08l24.426,3.975
			l12.082,1.967l0.395,0.064L176.088,158.453z M121.465,117.354l-69.953-5.701V58.18l69.953-5.701V117.354z M299.869,111.652
			l-69.951,5.701V52.479l69.951,5.701V111.652z"/>
		<g>
			<g>
				<g>
					<path fill="#E3E3E3" d="M350.994,27.84L222.955,7l-28.154-4.584L179.959,0v42.457l14.842,1.209v82.5l-14.842,1.207v42.457
						l14.842-2.414l28.154-4.582l128.039-20.84V27.84z M242.922,122.307V47.525l80.631,6.572v61.637L242.922,122.307z"/>
					<linearGradient id="SVGID_1_" gradientUnits="userSpaceOnUse" x1="0.3867" y1="84.915" x2="171.4219" y2="84.915">
						<stop  offset="0" style="stop-color:#E47F2D"/>
						<stop  offset="1" style="stop-color:#EDC529"/>
					</linearGradient>
					<path fill="url(#SVGID_1_)" d="M0.387,141.994l128.041,20.84l28.154,4.582l14.84,2.414v-42.457l-14.84-1.207v-82.5l14.84-1.209
						V0l-14.84,2.416L128.428,7L0.387,27.84V141.994z M27.826,115.734V54.098l80.631-6.572v74.781L27.826,115.734z"/>
				</g>
			</g>
		</g>
		<g>
			<g>
				<g>
					<path fill="#434345" d="M20.566,245.684l-10.225,24.051H0l39.11-88.783l38.096,88.783h-10.45l-10.004-24.051H20.566z
						 M38.886,202.979l-14.498,33.938h28.655L38.886,202.979z"/>
					<path fill="#434345" d="M95.858,269.734h-9.442v-84.736h12.251c16.07,0,31.018,4.271,31.018,23.375
						c0,13.035-8.206,22.25-21.24,23.375l26.968,37.986h-11.571L98.22,232.531h-2.361V269.734z M95.858,224.219h2.921
						c10.675,0,21.463-2.023,21.463-15.17c0-13.938-10.225-15.287-21.575-15.287h-2.809V224.219z"/>
				</g>
				<g>
					<path fill="#434345" d="M251.73,245.684l-10.222,24.051h-10.341l39.108-88.783l38.097,88.783h-10.449l-10.006-24.051H251.73z
						 M270.052,202.979l-14.498,33.938h28.658L270.052,202.979z"/>
					<path fill="#434345" d="M327.024,260.969h23.374v8.766h-32.814v-84.736h9.44V260.969z"/>
				</g>
			</g>
		</g>
		<path fill="#434345" d="M207.96,261.02c-7.028,5.6-15.964,8.934-26.328,8.934c-25.376,0-42.41-19.895-42.41-42.887v-0.236
			c0-22.994,17.274-43.127,42.649-43.127s42.411,19.895,42.411,42.889c0.118,0.119,0.118,0.119,0,0.238
			c0,10.482-3.575,20.371-10.008,27.996l11.079,9.172l-6.435,7.029L207.96,261.02z M201.05,254.943l-15.485-13.223l6.313-7.027
			l15.369,13.938c4.526-5.84,7.266-13.342,7.266-21.564v-0.236c0-18.943-13.819-34.43-32.88-34.43
			c-19.06,0-32.642,15.248-32.642,34.191v0.238c0,18.941,13.819,34.428,32.881,34.428
			C189.256,261.258,195.928,258.875,201.05,254.943z"/>
	</g>
	<g>
		<path fill="#434345" d="M0.003,286.274h2.854v25.293H0.003V286.274z"/>
		<path fill="#434345" d="M9.6,293.858h1.873l11.157,14.192v-14.192h1.948v17.709h-1.594l-11.435-14.521v14.521H9.6V293.858z"/>
		<path fill="#434345" d="M29.705,293.858h6.148c5.566,0,9.411,3.819,9.411,8.804v0.051c0,4.983-3.845,8.854-9.411,8.854h-6.148
			V293.858z M35.853,309.721c4.478,0,7.336-3.036,7.336-6.957v-0.051c0-3.922-2.858-7.008-7.336-7.008h-4.149v14.016H35.853z"/>
		<path fill="#434345" d="M49.141,304.154v-10.296h1.999v10.17c0,3.82,2.024,5.971,5.414,5.971c3.263,0,5.338-1.974,5.338-5.845
			v-10.296h1.999v10.145c0,5.161-2.96,7.843-7.387,7.843C52.125,311.846,49.141,309.164,49.141,304.154z M57.995,288.748
			l2.024,0.936l-2.859,2.732h-1.568L57.995,288.748z"/>
		<path fill="#434345" d="M67.3,308.987l1.24-1.468c1.847,1.67,3.618,2.505,6.072,2.505c2.378,0,3.947-1.266,3.947-3.011v-0.051
			c0-1.645-0.886-2.58-4.604-3.364c-4.073-0.886-5.945-2.201-5.945-5.111v-0.05c0-2.783,2.454-4.832,5.819-4.832
			c2.581,0,4.427,0.733,6.224,2.175l-1.164,1.544c-1.645-1.341-3.289-1.923-5.11-1.923c-2.302,0-3.77,1.265-3.77,2.858v0.051
			c0,1.67,0.911,2.605,4.807,3.44c3.947,0.86,5.769,2.303,5.769,5.01v0.051c0,3.035-2.53,5.009-6.047,5.009
			C71.728,311.82,69.425,310.885,67.3,308.987z"/>
		<path fill="#434345" d="M89.211,295.705h-5.945v-1.847H97.18v1.847h-5.945v15.862h-2.024V295.705z"/>
		<path fill="#434345" d="M100.604,293.858h7.615c2.176,0,3.921,0.657,5.035,1.771c0.86,0.86,1.366,2.1,1.366,3.491v0.051
			c0,2.935-2.024,4.655-4.807,5.161l5.439,7.235h-2.454l-5.136-6.881h-0.05h-5.009v6.881h-1.999V293.858z M108.042,302.89
			c2.657,0,4.554-1.366,4.554-3.643v-0.051c0-2.176-1.67-3.491-4.529-3.491h-5.464v7.185H108.042z"/>
		<path fill="#434345" d="M118.977,293.858h1.999v17.709h-1.999V293.858z"/>
		<path fill="#434345" d="M132.396,293.731h1.872l8.07,17.836h-2.15l-2.074-4.681h-9.639l-2.1,4.681h-2.049L132.396,293.731z
			 M137.33,305.091l-4.022-9.032l-4.048,9.032H137.33z"/>
		<path fill="#434345" d="M152.946,293.858h6.148c5.566,0,9.411,3.819,9.411,8.804v0.051c0,4.983-3.845,8.854-9.411,8.854h-6.148
			V293.858z M159.094,309.721c4.478,0,7.337-3.036,7.337-6.957v-0.051c0-3.922-2.859-7.008-7.337-7.008h-4.149v14.016H159.094z"/>
		<path fill="#434345" d="M172.692,293.858h12.801v1.821h-10.802v6.046h9.665v1.822h-9.665v6.198h10.929v1.821h-12.928V293.858z"/>
		<path fill="#434345" d="M207.657,286.094h2.674l11.526,25.474h-3.071l-2.963-6.685h-13.767l-2.999,6.685h-2.927L207.657,286.094z
			 M214.703,302.317l-5.745-12.899l-5.781,12.899H214.703z"/>
		<path fill="#434345" d="M225.944,293.858h1.998v15.862h9.968v1.847h-11.966V293.858z"/>
		<path fill="#434345" d="M240.385,304.154v-10.296h1.998v10.17c0,3.82,2.024,5.971,5.414,5.971c3.264,0,5.338-1.974,5.338-5.845
			v-10.296h1.999v10.145c0,5.161-2.96,7.843-7.388,7.843C243.37,311.846,240.385,309.164,240.385,304.154z"/>
		<path fill="#434345" d="M260.063,293.858h2.023l6.451,9.664l6.451-9.664h2.024v17.709h-1.999v-14.345l-6.451,9.487h-0.101
			l-6.452-9.462v14.319h-1.947V293.858z"/>
		<path fill="#434345" d="M282.241,293.858h1.999v17.709h-1.999V293.858z M284.847,288.621l2.024,0.937l-2.859,2.731h-1.568
			L284.847,288.621z"/>
		<path fill="#434345" d="M289.452,293.858h1.872l11.156,14.192v-14.192h1.948v17.709h-1.594L291.4,297.046v14.521h-1.948V293.858z"
			/>
		<path fill="#434345" d="M309.639,293.858h1.999v17.709h-1.999V293.858z"/>
		<path fill="#434345" d="M315.9,302.764v-0.051c0-4.883,3.668-9.158,9.057-9.158s9.007,4.225,9.007,9.107
			c0.025,0.025,0.025,0.025,0,0.051c0,4.883-3.669,9.158-9.058,9.158S315.9,307.646,315.9,302.764z M331.889,302.764v-0.051
			c0-4.022-2.935-7.312-6.982-7.312s-6.932,3.238-6.932,7.261v0.051c0,4.022,2.935,7.312,6.982,7.312
			S331.889,306.786,331.889,302.764z"/>
		<path fill="#434345" d="M336.668,308.987l1.239-1.468c1.848,1.67,3.618,2.505,6.072,2.505c2.378,0,3.946-1.266,3.946-3.011v-0.051
			c0-1.645-0.885-2.58-4.604-3.364c-4.073-0.886-5.945-2.201-5.945-5.111v-0.05c0-2.783,2.454-4.832,5.819-4.832
			c2.58,0,4.427,0.733,6.224,2.175l-1.164,1.544c-1.645-1.341-3.289-1.923-5.11-1.923c-2.302,0-3.77,1.265-3.77,2.858v0.051
			c0,1.67,0.911,2.605,4.807,3.44c3.947,0.86,5.769,2.303,5.769,5.01v0.051c0,3.035-2.53,5.009-6.047,5.009
			C341.096,311.82,338.793,310.885,336.668,308.987z"/>
	</g>
</g>
</svg>
